<?xml version="1.0" encoding="UTF-8"?><svg id="b" xmlns="http://www.w3.org/2000/svg" viewBox="0 0 19.05 17.06"><g id="c"><path d="M8.2,7.54v-.17C5.15,6.36,1.7,7.59,.03,10.47l1.2,.69c1.52-2.64,4.91-3.54,7.55-2.02,0,0,0,0,.01,0l.5-.3c-.62-.11-1.1-.66-1.1-1.31Z" fill="#fff"/><path d="M9.53,5.45h.19v-.19c0-.74,.6-1.33,1.33-1.33h.76c.09,0,.17,.03,.26,.05v-.49L6.04,0,0,3.48v5.15c1.03-1.18,2.39-2.03,3.94-2.45,1.45-.39,2.95-.36,4.36,.07,.2-.48,.68-.81,1.23-.81Z" fill="#fff"/><path d="M7.5,9.93l.15-.09c-2.01-.8-4.35-.05-5.47,1.88l1.2,.69c.69-1.19,2.06-1.72,3.34-1.42,.11-.44,.38-.83,.78-1.06Z" fill="#fff"/></g><g id="d"><path d="M4.28,13.6l2.58-1.11v4.57h-2.66c-.21,0-.38-.17-.38-.38v-2.38c0-.31,.19-.58,.46-.7Z" fill="#fff"/><path d="M15.24,11.4v5.66h-2.28v-2.28c0-.84-.68-1.52-1.52-1.52s-1.52,.68-1.52,1.52v2.28h-2.28v-5.66c0-.28,.15-.52,.37-.65l2.68-1.61v-1.22h-1.14c-.21,0-.38-.17-.38-.38v-.76c0-.21,.17-.38,.38-.38h1.14v-1.14c0-.21,.17-.38,.38-.38h.76c.21,0,.38,.17,.38,.38v1.14h1.14c.21,0,.38,.17,.38,.38v.76c0,.21-.17,.38-.38,.38h-1.14v1.22l2.68,1.61c.23,.14,.37,.39,.37,.65Z" fill="#fff"/><path d="M19.05,14.3v2.38c0,.21-.17,.38-.38,.38h-2.66v-4.57l2.58,1.11c.28,.12,.46,.4,.46,.7Z" fill="#fff"/></g></svg>