<?xml version="1.0" encoding="UTF-8"?><svg id="b" xmlns="http://www.w3.org/2000/svg" viewBox="0 0 18.19 18.18"><g id="c"><path d="M18.12,12.84c-.07,1.46-.41,2.75-1.47,3.81-1.06,1.07-2.35,1.4-3.81,1.47-1.5,.08-6,.08-7.5,0-1.46-.07-2.74-.41-3.81-1.47C.47,15.59,.13,14.3,.06,12.84-.02,11.34-.02,6.84,.06,5.34c.07-1.46,.4-2.75,1.47-3.81C2.6,.47,3.89,.13,5.34,.06,6.84-.02,11.34-.02,12.84,.06c1.46,.07,2.75,.41,3.81,1.47,1.07,1.06,1.4,2.35,1.47,3.81,.09,1.5,.09,6,0,7.5Zm-1.57-3.75c0-1.32,.11-4.16-.37-5.36-.32-.8-.93-1.41-1.73-1.73-1.19-.47-4.04-.37-5.36-.37s-4.16-.11-5.36,.37c-.8,.32-1.41,.93-1.73,1.73-.47,1.19-.37,4.04-.37,5.36s-.11,4.16,.37,5.36c.32,.8,.93,1.41,1.73,1.73,1.19,.47,4.04,.37,5.36,.37s4.16,.11,5.36-.37c.8-.32,1.41-.93,1.73-1.73,.47-1.19,.37-4.04,.37-5.36Zm-2.79,0c0,2.58-2.08,4.66-4.66,4.66s-4.66-2.08-4.66-4.66,2.08-4.66,4.66-4.66,4.66,2.08,4.66,4.66Zm-1.63,0c0-1.67-1.36-3.03-3.03-3.03s-3.03,1.36-3.03,3.03,1.36,3.03,3.03,3.03,3.03-1.36,3.03-3.03Zm1.82-3.77c-.61,0-1.09-.49-1.09-1.09s.49-1.09,1.09-1.09,1.09,.49,1.09,1.09-.49,1.09-1.09,1.09Z"/></g></svg>