<?xml version="1.0" encoding="UTF-8"?><svg id="b" xmlns="http://www.w3.org/2000/svg" viewBox="0 0 18.17 18.17"><g id="c"><path d="M18.17,1.31v15.55c0,.72-.58,1.31-1.3,1.31H1.29c-.71,0-1.29-.59-1.29-1.31V1.31C0,.59,.58,0,1.29,0h15.58c.71,0,1.3,.59,1.3,1.31ZM5.71,4.16c0-.86-.7-1.56-1.56-1.56s-1.56,.7-1.56,1.56,.7,1.56,1.56,1.56,1.56-.7,1.56-1.56Zm-.21,11.42V6.91H2.8V15.58h2.7Zm10.09-4.75c0-2.34-.51-4.13-3.23-4.13-1.31,0-2.19,.72-2.55,1.4h-.04v-1.18h-2.58V15.58h2.69v-4.29c0-1.13,.21-2.23,1.62-2.23s1.4,1.29,1.4,2.3v4.22h2.69v-4.75Z"/></g></svg>