<?xml version="1.0" encoding="UTF-8"?><svg id="b" xmlns="http://www.w3.org/2000/svg" viewBox="0 0 20.77 16.87"><g id="c"><path d="M18.65,4.76c0,5.63-4.28,12.11-12.11,12.11-2.41,0-4.65-.7-6.54-1.91,.34,.04,.67,.05,1.03,.05,1.99,0,3.82-.67,5.29-1.82-1.87-.04-3.44-1.27-3.98-2.95,.26,.04,.53,.07,.8,.07,.38,0,.76-.05,1.12-.15-1.95-.4-3.41-2.11-3.41-4.18v-.05c.57,.32,1.23,.51,1.92,.54-1.15-.76-1.9-2.07-1.9-3.54,0-.79,.21-1.52,.58-2.15C3.55,3.36,6.7,5.05,10.23,5.23c-.07-.32-.11-.65-.11-.98,0-2.34,1.9-4.26,4.26-4.26,1.23,0,2.33,.51,3.11,1.34,.96-.18,1.88-.54,2.7-1.03-.32,.99-.99,1.82-1.87,2.35,.86-.09,1.69-.33,2.45-.66-.58,.84-1.3,1.6-2.13,2.2,.01,.18,.01,.37,.01,.55Z"/></g></svg>