<?xml version="1.0" encoding="UTF-8"?><svg id="b" xmlns="http://www.w3.org/2000/svg" viewBox="0 0 20 18.66"><g id="c"><g><path d="M6.38,6.64h0l.36-.22c-.45-.08-.8-.48-.8-.95h0s0-.12,0-.12C3.74,4.62,1.23,5.51,.02,7.61l.87,.5c1.1-1.92,3.57-2.57,5.48-1.47Z" fill="#f89521"/><path d="M2.86,4.49c1.05-.28,2.14-.26,3.17,.05,.15-.35,.49-.59,.89-.59h0s.14,0,.14,0v-.14c0-.54,.44-.97,.97-.97h.55c.07,0,.12,.02,.19,.04v-.36L4.39,0,0,2.53v3.74c.75-.86,1.74-1.47,2.86-1.78Z" fill="#f89521"/><path d="M1.58,8.51l.87,.5c.5-.86,1.5-1.25,2.43-1.03,.08-.32,.28-.6,.57-.77l.11-.07c-1.46-.58-3.16-.04-3.97,1.37Z" fill="#f89521"/><path d="M2.77,10.39v1.73c0,.15,.12,.28,.28,.28h1.93v-3.32l-1.87,.81c-.2,.09-.33,.28-.33,.51Z" fill="#4e4e4f"/><path d="M9.97,4.92c0-.15-.12-.28-.28-.28h-.83v-.83c0-.15-.12-.28-.28-.28h-.55c-.15,0-.28,.12-.28,.28v.83h-.83c-.15,0-.28,.12-.28,.28v.55c0,.15,.12,.28,.28,.28h.83v.12c.61-.51,1.37-.85,2.21-.94h0Z" fill="#4e4e4f"/><path d="M6.65,7.31l-.83,.5c-.16,.09-.27,.27-.27,.47v4.11h.69v-3.29c0-.64,.15-1.25,.41-1.79Z" fill="#4e4e4f"/><path d="M16.93,6.03h-6.49c-1.7,0-3.07,1.37-3.07,3.07v6.49c0,1.7,1.37,3.07,3.07,3.07h6.49c1.7,0,3.07-1.37,3.07-3.07v-6.49c0-1.7-1.37-3.07-3.07-3.07Zm-4.57,6.32c0,.08,0,.17-.02,.25l2.98,1.3c.26-.34,.67-.57,1.14-.57,.79,0,1.43,.64,1.43,1.43s-.64,1.43-1.43,1.43-1.43-.64-1.43-1.43c0-.08,0-.17,.02-.25l-2.98-1.3c-.26,.34-.67,.57-1.14,.57-.79,0-1.43-.64-1.43-1.43s.64-1.43,1.43-1.43c.46,0,.88,.22,1.14,.57l2.98-1.3c-.01-.08-.02-.16-.02-.25,0-.79,.64-1.43,1.43-1.43s1.43,.64,1.43,1.43-.64,1.43-1.43,1.43c-.46,0-.88-.22-1.14-.57l-2.98,1.3c.01,.08,.02,.16,.02,.25Z"/></g></g></svg>