<?xml version="1.0" encoding="UTF-8"?><svg id="b" xmlns="http://www.w3.org/2000/svg" viewBox="0 0 20 18.89"><g id="c"><g><path d="M8.87,6.21c.22-.16,.45-.32,.69-.46h-.69v.46Z" fill="none"/><path d="M6.38,6.64h0l.36-.22c-.45-.08-.8-.48-.8-.95h0s0-.12,0-.12C3.74,4.62,1.23,5.51,.02,7.61l.87,.5c1.1-1.92,3.57-2.57,5.48-1.47Z" fill="#f89521"/><path d="M2.86,4.49c1.05-.28,2.14-.26,3.17,.05,.15-.35,.49-.59,.89-.59h0s.14,0,.14,0v-.14c0-.54,.44-.97,.97-.97h.55c.07,0,.12,.02,.19,.04v-.36L4.39,0,0,2.53v3.74c.75-.86,1.74-1.47,2.86-1.78Z" fill="#f89521"/><path d="M1.58,8.51l.87,.5c.5-.86,1.5-1.25,2.43-1.03,.08-.32,.28-.6,.57-.77l.11-.07c-1.46-.58-3.16-.04-3.97,1.37Z" fill="#f89521"/><path d="M2.77,10.39v1.73c0,.15,.12,.28,.28,.28h1.93v-3.32l-1.87,.81c-.2,.09-.33,.28-.33,.51Z" fill="#4e4e4f"/><path d="M8.87,6.21v-.46h.69c.13-.08,.27-.15,.41-.23,0-.02,.01-.03,.01-.05v-.55c0-.15-.12-.28-.28-.28h-.83v-.83c0-.15-.12-.28-.28-.28h-.55c-.15,0-.28,.12-.28,.28v.83h-.83c-.15,0-.28,.12-.28,.28v.55c0,.15,.12,.28,.28,.28h.83v.89l-1.95,1.17c-.16,.09-.27,.27-.27,.47v4.11h.24s0-.03,0-.05c0-2.51,1.21-4.74,3.08-6.14Z" fill="#4e4e4f"/><path d="M20,12.35c0,3.61-2.93,6.54-6.54,6.54s-6.54-2.93-6.54-6.54,2.93-6.54,6.54-6.54,6.54,2.93,6.54,6.54Zm-1.27,0c0-2.91-2.36-5.27-5.27-5.27s-5.27,2.36-5.27,5.27,2.36,5.27,5.27,5.27,5.27-2.36,5.27-5.27Zm-5.88,.89c-.08-.06-.13-.15-.13-.25v-4.33c0-.17,.14-.32,.32-.32h.84c.17,0,.32,.14,.32,.32v3.74l1.76,1.28c.14,.1,.17,.3,.07,.44l-.5,.68c-.1,.14-.3,.17-.44,.07l-2.24-1.63Z"/><path d="M20,12.35c0,3.61-2.93,6.54-6.54,6.54s-6.54-2.93-6.54-6.54,2.93-6.54,6.54-6.54,6.54,2.93,6.54,6.54Zm-1.27,0c0-2.91-2.36-5.27-5.27-5.27s-5.27,2.36-5.27,5.27,2.36,5.27,5.27,5.27,5.27-2.36,5.27-5.27Zm-5.88,.89c-.08-.06-.13-.15-.13-.25v-4.33c0-.17,.14-.32,.32-.32h.84c.17,0,.32,.14,.32,.32v3.74l1.76,1.28c.14,.1,.17,.3,.07,.44l-.5,.68c-.1,.14-.3,.17-.44,.07l-2.24-1.63Z"/></g></g></svg>